<svg id="Layer_1" data-name="Layer 1" xmlns="http://www.w3.org/2000/svg" xmlns:xlink="http://www.w3.org/1999/xlink" viewBox="0 0 344.81 78.83"><defs><style>.cls-1,.cls-7{fill:none;}.cls-2{fill:#262729;}.cls-3{fill:#77bc1f;}.cls-4{clip-path:url(#clip-path);}.cls-5{fill:url(#linear-gradient);}.cls-6{fill:url(#linear-gradient-2);}.cls-7{stroke:#262729;stroke-miterlimit:10;stroke-width:0.17px;}</style><clipPath id="clip-path"><path class="cls-1" d="M69.56,37a18.92,18.92,0,0,0-20.2-17.52A19,19,0,0,0,36.08,26.4l-6.4,7.38,5.19,4.51,6.44-7.42.06-.08A12,12,0,1,1,59.8,46.24a12,12,0,0,1-17.26.95l-17-14.72A11.17,11.17,0,1,0,10.68,49.14h0a11.16,11.16,0,0,0,15.94-1.35l1.49-1.72-5.2-4.5-1.51,1.76-.08.08a4.29,4.29,0,1,1-6.57-5.53,4.26,4.26,0,0,1,6-.43l.11.09,0,0,17,14.7.41.37h0A18.9,18.9,0,0,0,69.56,37Z"/></clipPath><linearGradient id="linear-gradient" x1="36.3" y1="31.42" x2="32.26" y2="36.07" gradientUnits="userSpaceOnUse"><stop offset="0" stop-color="#77bc1f" stop-opacity="0"/><stop offset="1" stop-color="#262729"/></linearGradient><linearGradient id="linear-gradient-2" x1="21.11" y1="47.75" x2="24.95" y2="43.33" xlink:href="#linear-gradient"/></defs><title>PanoramicPower-Logo</title><path class="cls-2" d="M95.13,7.16h18.51c5.28,0,10.33,2.65,10.33,9.91,0,6.49-4.28,10-11.92,10H98.69V41.47H95.13Zm3.56,16.63h13.75c6,0,7.68-2.74,7.68-6.72,0-5.15-2.88-6.64-7-6.64H98.69Z"/><path class="cls-2" d="M125.6,24.17c.53-5.23,3.36-8.45,11.92-8.45,8.35,0,11.43,2.6,11.43,7.4V36.18c0,2.07.57,2.79,2,2.79.63,0,1.25,0,1.88-.09v2.4a14.61,14.61,0,0,1-3,.39c-3.61,0-3.8-2.45-3.84-4.43h-.1c-1.1,1.64-3.5,5-11.67,5-4.28,0-9.7-1.88-9.7-7.51,0-6.77,7-7.54,12.44-7.83,7.78-.43,8.75-.86,8.75-3.31,0-3.6-2.4-4.9-8.27-4.9-5.62,0-8.31,1.49-8.55,5.47ZM145.68,28c-1.58,1-4,1.2-11.1,1.87-4.13.39-6.53,1.63-6.53,4.62,0,3.89,3.36,5,7.2,5,4.81,0,10.43-2.6,10.43-7.74Z"/><path class="cls-2" d="M176.39,25.38c0-5-3-6.68-7.55-6.68-7,0-10.13,3.55-10.13,9.22V41.47h-3.55v-25h3.55v4.9h.09c1.06-2.64,4.81-5.67,10.33-5.67,8.32,0,10.81,4.33,10.81,10.28V41.47h-3.55Z"/><path class="cls-2" d="M197.53,15.72c9.6,0,14.17,6.3,14.17,13.26s-4.56,13.27-14.17,13.27S183.36,35.95,183.36,29,187.92,15.72,197.53,15.72Zm0,23.54c6.72,0,10.61-4.27,10.61-10.28S204.25,18.7,197.53,18.7,186.91,23,186.91,29,190.8,39.26,197.53,39.26Z"/><path class="cls-2" d="M215.35,16.48h3.56V22.2H219c1.3-3,3.65-6.49,9.57-6.49a11,11,0,0,1,2.12.19v3.65a19.23,19.23,0,0,0-3.28-.28c-3.84,0-8.5,2.35-8.5,9.46V41.47h-3.56Z"/><path class="cls-2" d="M232.94,24.17c.54-5.23,3.37-8.45,11.92-8.45,8.36,0,11.43,2.6,11.43,7.4V36.18c0,2.07.58,2.79,2,2.79.63,0,1.26,0,1.88-.09v2.4a14.48,14.48,0,0,1-3,.39c-3.61,0-3.8-2.45-3.84-4.43h-.1c-1.1,1.64-3.51,5-11.67,5-4.28,0-9.71-1.88-9.71-7.51,0-6.77,7-7.54,12.44-7.83,7.8-.43,8.76-.86,8.76-3.31,0-3.6-2.41-4.9-8.27-4.9-5.62,0-8.32,1.49-8.55,5.47ZM253,28c-1.59,1-4,1.2-11.1,1.87-4.14.39-6.53,1.63-6.53,4.62,0,3.89,3.36,5,7.2,5,4.8,0,10.43-2.6,10.43-7.74Z"/><path class="cls-2" d="M301.5,25.62c0-4.56-2.31-6.92-7.44-6.92-5.48,0-8.51,3.17-8.51,8V41.47H282V24.56c0-3.18-2.26-5.86-7.11-5.86-5.08,0-8.83,2.93-8.83,8.7V41.47h-3.56v-25h3.56V21.1h.1c1.49-2.64,4.17-5.38,9.9-5.38s8.21,3,8.94,5.48c1.19-2.5,4.8-5.48,9.8-5.48,7,0,10.28,3.56,10.28,8.7V41.47H301.5Z"/><path class="cls-2" d="M310.45,6.88H314v5.28h-3.55Zm0,9.6H314v25h-3.55Z"/><path class="cls-2" d="M344.81,32.53c-.68,3.28-3.56,9.72-12.64,9.72S318.1,36.81,318.1,29c0-7.5,4.6-13.26,14.07-13.26,8.55,0,11.87,5.34,12.44,8.94h-3.56c-1.1-4.28-4.46-6-8.88-6-7.16,0-10.53,4.51-10.53,10.28,0,6.2,3.75,10.28,10.53,10.28,5.24,0,8.17-2.84,9.08-6.73Z"/><path class="cls-3" d="M94.66,49.19h10c4.23,0,6.45,2,6.45,5.55s-2.22,6-6.27,6H97.52V68.5H94.66Zm9.76,9.09c2.83,0,3.78-1.53,3.78-3.48s-1.08-3.11-3.27-3.11h-7.4v6.59Z"/><path class="cls-3" d="M123.2,48.71c7.76,0,10.74,5.19,10.74,10.13S131,69,123.2,69s-10.74-5.18-10.74-10.14S115.44,48.71,123.2,48.71Zm0,2.49c-4.41,0-7.87,2.54-7.87,7.64s3.46,7.66,7.87,7.66,7.86-2.54,7.86-7.66S127.61,51.2,123.2,51.2Z"/><path class="cls-3" d="M148.85,52.5h-.06l-5.32,16H140.3L134,49.19h3.1l5,15.68h.06l5.16-15.68h3.4l5.31,15.68h0l4.92-15.68h3L157.34,68.5h-3.13Z"/><path class="cls-3" d="M166.3,49.19h15.52v2.5H169.18v5.6h12.27v2.49H169.18V66h12.92V68.5H166.3Z"/><path class="cls-3" d="M185.45,49.19h12a4.86,4.86,0,0,1,5.26,5.15,4.62,4.62,0,0,1-3.24,4.76v0c1.71.25,2.7,1.85,2.81,4.11.16,3.61.27,4.49.91,5.24h-3c-.46-.54-.46-1.35-.6-3.67-.19-3.46-1.34-4.52-3.73-4.52h-7.48V68.5h-2.86Zm10.87,8.63c2.81,0,3.49-1.7,3.49-3.05,0-1.84-1.11-3.08-3.41-3.08h-8.08v6.13Z"/><path class="cls-2" d="M78.83,39.41A39.42,39.42,0,1,1,39.42,0,39.42,39.42,0,0,1,78.83,39.41Z"/><path class="cls-3" d="M69.56,37a18.92,18.92,0,0,0-20.2-17.52A19,19,0,0,0,36.08,26.4l-6.4,7.38,5.19,4.51,6.44-7.42.06-.08A12,12,0,1,1,59.8,46.24a12,12,0,0,1-17.26.95l-17-14.72A11.17,11.17,0,1,0,10.68,49.14h0a11.16,11.16,0,0,0,15.94-1.35l1.49-1.72-5.2-4.5-1.51,1.76-.08.08a4.29,4.29,0,1,1-6.57-5.53,4.26,4.26,0,0,1,6-.43l.11.09,0,0,17,14.7.41.37h0A18.9,18.9,0,0,0,69.56,37Z"/><g class="cls-4"><polygon class="cls-5" points="38.93 33.71 33.48 29.32 29.68 33.77 34.9 38.37 38.93 33.71"/><path class="cls-6" d="M21.42,43.35l-.07.08a4.25,4.25,0,0,1-3,1.57c-.13,0-.26,0-.39,0l6,5.17a11.16,11.16,0,0,0,2.68-2.35l1.49-1.72-5.2-4.5Z"/></g><path class="cls-7" d="M69.56,37a18.92,18.92,0,0,0-20.2-17.52A19,19,0,0,0,36.08,26.4l-6.4,7.38,5.19,4.51,6.44-7.42.06-.08A12,12,0,1,1,59.8,46.24a12,12,0,0,1-17.26.95l-17-14.72A11.17,11.17,0,1,0,10.68,49.14h0a11.16,11.16,0,0,0,15.94-1.35l1.49-1.72-5.2-4.5-1.51,1.76-.08.08a4.29,4.29,0,1,1-6.57-5.53,4.26,4.26,0,0,1,6-.43l.11.09,0,0,17,14.7.41.37h0A18.9,18.9,0,0,0,69.56,37Z"/><path class="cls-3" d="M208.09,56.16a3.48,3.48,0,1,1,3.48-3.48A3.37,3.37,0,0,1,208.09,56.16Zm0-6.15a2.67,2.67,0,0,0,0,5.34v0a2.68,2.68,0,0,0,0-5.35Zm-.58,4.54h-.81V50.8h1.41c1,0,1.53.29,1.53,1.13a.87.87,0,0,1-.91,1l1,1.64h-.95L207.89,53h-.37Zm.7-2.2c.36,0,.57-.08.57-.49s-.41-.41-.72-.41h-.56v.91Z"/></svg>